<mxfile host="app.diagrams.net" modified="2023-05-17T20:16:33.485Z" agent="Mozilla/5.0 (Windows NT 10.0; Win64; x64) AppleWebKit/537.36 (KHTML, like Gecko) Chrome/113.0.0.0 Safari/537.36 Edg/113.0.1774.42" etag="Jjn8_suKCBEigdYJyV6L" version="21.2.9" type="device">
  <diagram name="Page-1" id="R7aO3O3S8bJLoXP_t5H5">
    <mxGraphModel dx="592" dy="825" grid="1" gridSize="10" guides="1" tooltips="1" connect="1" arrows="1" fold="1" page="1" pageScale="1" pageWidth="1920" pageHeight="1200" math="0" shadow="0">
      <root>
        <mxCell id="0" />
        <mxCell id="1" parent="0" />
        <mxCell id="FMvPZFNOGKiZINx1U1My-5" style="edgeStyle=orthogonalEdgeStyle;rounded=0;orthogonalLoop=1;jettySize=auto;html=1;exitX=1;exitY=0.5;exitDx=0;exitDy=0;entryX=0;entryY=0.5;entryDx=0;entryDy=0;" parent="1" source="FMvPZFNOGKiZINx1U1My-1" target="FMvPZFNOGKiZINx1U1My-3" edge="1">
          <mxGeometry relative="1" as="geometry" />
        </mxCell>
        <mxCell id="FMvPZFNOGKiZINx1U1My-1" value="Have a" style="rhombus;whiteSpace=wrap;html=1;" parent="1" vertex="1">
          <mxGeometry x="520" y="560" width="80" height="80" as="geometry" />
        </mxCell>
        <mxCell id="FMvPZFNOGKiZINx1U1My-4" style="edgeStyle=orthogonalEdgeStyle;rounded=0;orthogonalLoop=1;jettySize=auto;html=1;exitX=1;exitY=0.5;exitDx=0;exitDy=0;entryX=0;entryY=0.5;entryDx=0;entryDy=0;" parent="1" source="FMvPZFNOGKiZINx1U1My-2" target="FMvPZFNOGKiZINx1U1My-1" edge="1">
          <mxGeometry relative="1" as="geometry" />
        </mxCell>
        <mxCell id="FMvPZFNOGKiZINx1U1My-2" value="Users" style="whiteSpace=wrap;html=1;aspect=fixed;" parent="1" vertex="1">
          <mxGeometry x="370" y="560" width="80" height="80" as="geometry" />
        </mxCell>
        <mxCell id="FMvPZFNOGKiZINx1U1My-3" value="List of itinaries" style="whiteSpace=wrap;html=1;aspect=fixed;" parent="1" vertex="1">
          <mxGeometry x="660" y="560" width="80" height="80" as="geometry" />
        </mxCell>
      </root>
    </mxGraphModel>
  </diagram>
</mxfile>
